<svg width="49" height="22" viewBox="0 0 49 22" fill="none" xmlns="http://www.w3.org/2000/svg">
<path d="M26.1684 7.278V10.54H29.7244V11.59H26.1684V14.95H30.1444V16H24.8944V6.228H30.1444V7.278H26.1684ZM31.5961 12.136C31.5961 11.352 31.7548 10.666 32.0721 10.078C32.3895 9.48067 32.8235 9.01867 33.3741 8.692C33.9341 8.36533 34.5595 8.202 35.2501 8.202C35.8475 8.202 36.4028 8.342 36.9161 8.622C37.4295 8.89267 37.8215 9.252 38.0921 9.7V5.64H39.3801V16H38.0921V14.558C37.8401 15.0153 37.4668 15.3933 36.9721 15.692C36.4775 15.9813 35.8988 16.126 35.2361 16.126C34.5548 16.126 33.9341 15.958 33.3741 15.622C32.8235 15.286 32.3895 14.8147 32.0721 14.208C31.7548 13.6013 31.5961 12.9107 31.5961 12.136ZM38.0921 12.15C38.0921 11.5713 37.9755 11.0673 37.7421 10.638C37.5088 10.2087 37.1915 9.882 36.7901 9.658C36.3981 9.42467 35.9641 9.308 35.4881 9.308C35.0121 9.308 34.5781 9.42 34.1861 9.644C33.7941 9.868 33.4815 10.1947 33.2481 10.624C33.0148 11.0533 32.8981 11.5573 32.8981 12.136C32.8981 12.724 33.0148 13.2373 33.2481 13.676C33.4815 14.1053 33.7941 14.4367 34.1861 14.67C34.5781 14.894 35.0121 15.006 35.4881 15.006C35.9641 15.006 36.3981 14.894 36.7901 14.67C37.1915 14.4367 37.5088 14.1053 37.7421 13.676C37.9755 13.2373 38.0921 12.7287 38.0921 12.15ZM42.1911 7.082C41.9484 7.082 41.7431 6.998 41.5751 6.83C41.4071 6.662 41.3231 6.45667 41.3231 6.214C41.3231 5.97133 41.4071 5.766 41.5751 5.598C41.7431 5.43 41.9484 5.346 42.1911 5.346C42.4244 5.346 42.6204 5.43 42.7791 5.598C42.9471 5.766 43.0311 5.97133 43.0311 6.214C43.0311 6.45667 42.9471 6.662 42.7791 6.83C42.6204 6.998 42.4244 7.082 42.1911 7.082ZM42.8071 8.328V16H41.5331V8.328H42.8071ZM46.5324 9.378V13.9C46.5324 14.2733 46.6117 14.5393 46.7704 14.698C46.9291 14.8473 47.2044 14.922 47.5964 14.922H48.5344V16H47.3864C46.6771 16 46.1451 15.8367 45.7904 15.51C45.4357 15.1833 45.2584 14.6467 45.2584 13.9V9.378H44.2644V8.328H45.2584V6.396H46.5324V8.328H48.5344V9.378H46.5324Z" fill="#C30E0E"/>
<path d="M23.8164 17.4H48.9964V18.1H23.8164V17.4Z" fill="#C30E0E"/>
<path d="M13.2891 2.97266L16.8398 6.52344L9 15.5586L8.73633 15.8398L8.36719 15.6992L8.08594 15.6113C7.85156 15.5645 7.61133 15.541 7.36523 15.541C7.03711 15.5293 6.72656 15.5762 6.43359 15.6816C6.07031 15.7988 5.74805 15.998 5.4668 16.2793H5.44922L5.30859 16.4023L4.14844 17.5625L1.125 16.7363L3.42773 14.4863L3.5332 14.3633V14.3457C3.81445 14.0645 4.01367 13.7422 4.13086 13.3789C4.23633 13.0859 4.2832 12.7754 4.27148 12.4473C4.27148 12.2012 4.24805 11.9609 4.20117 11.7266L4.11328 11.4453L3.97266 11.0762L4.25391 10.8125L12.8848 3.32422L13.2891 2.97266ZM13.2188 4.51953L7.55859 9.44141L10.3711 12.2539L15.293 6.59375L13.2188 4.51953ZM6.71484 10.1797L5.44922 11.2695L8.54297 14.3633L9.63281 13.0977L6.71484 10.1797ZM5.37891 12.7812C5.34375 13.6719 5.00391 14.4512 4.35938 15.1191L4.3418 15.1543L4.21875 15.2949L4.51758 15.5938L4.69336 15.4531C5.36133 14.8086 6.14062 14.4688 7.03125 14.4336L5.37891 12.7812Z" fill="#C30E0E"/>
</svg>
