<svg width="40" height="40" viewBox="0 0 40 40" fill="none" xmlns="http://www.w3.org/2000/svg">
<path d="M20.0002 23.3335V15.0002M26.9674 36.6668H13.0329C9.185 36.6668 6.06566 33.6901 6.06566 30.0181V21.8886C6.06566 20.7082 5.57429 19.5761 4.69964 18.7415C2.67317 16.8077 2.93661 13.6036 5.25434 11.995L15.9022 4.60515C18.3453 2.90961 21.655 2.90961 24.0981 4.60515L34.746 11.995C37.0637 13.6036 37.3272 16.8077 35.3007 18.7415C34.426 19.5761 33.9347 20.7082 33.9347 21.8886V30.0181C33.9347 33.6901 30.8153 36.6668 26.9674 36.6668Z" stroke="#C30E0E" stroke-width="2" stroke-linecap="round"/>
<path d="M20.6668 28.3333C20.6668 27.9651 20.3684 27.6667 20.0002 27.6667C19.632 27.6667 19.3335 27.9651 19.3335 28.3333C19.3335 28.7015 19.632 29 20.0002 29C20.3684 29 20.6668 28.7015 20.6668 28.3333Z" fill="#9C0B0B" stroke="#C30E0E" stroke-width="2"/>
</svg>
