<svg width="20" height="20" viewBox="0 0 20 20" fill="none" xmlns="http://www.w3.org/2000/svg">
<path d="M10 0.25C11.7656 0.25 13.4062 0.695312 14.9219 1.58594C16.3906 2.44531 17.5547 3.60938 18.4141 5.07812C19.3047 6.59375 19.75 8.23438 19.75 10C19.75 11.7656 19.3047 13.4062 18.4141 14.9219C17.5547 16.3906 16.3906 17.5547 14.9219 18.4141C13.4062 19.3047 11.7656 19.75 10 19.75C8.23438 19.75 6.59375 19.3047 5.07812 18.4141C3.60938 17.5547 2.44531 16.3906 1.58594 14.9219C0.695312 13.4062 0.25 11.7656 0.25 10C0.25 8.23438 0.695312 6.59375 1.58594 5.07812C2.44531 3.60938 3.60938 2.44531 5.07812 1.58594C6.59375 0.695312 8.23438 0.25 10 0.25ZM10 1.75C8.5 1.75 7.10938 2.125 5.82812 2.875C4.59375 3.60938 3.60938 4.59375 2.875 5.82812C2.125 7.10938 1.75 8.5 1.75 10C1.75 11.5 2.125 12.8906 2.875 14.1719C3.60938 15.4062 4.59375 16.3906 5.82812 17.125C7.10938 17.875 8.5 18.25 10 18.25C11.5 18.25 12.8906 17.875 14.1719 17.125C15.4062 16.3906 16.3906 15.4062 17.125 14.1719C17.875 12.8906 18.25 11.5 18.25 10C18.25 8.5 17.875 7.10938 17.125 5.82812C16.3906 4.59375 15.4062 3.60938 14.1719 2.875C12.8906 2.125 11.5 1.75 10 1.75ZM9.25 5.5H10.75V7H9.25V5.5ZM9.25 8.5H10.75V14.5H9.25V8.5Z" fill="black"/>
</svg>
