<svg width="175" height="32" viewBox="0 0 175 32" fill="none" xmlns="http://www.w3.org/2000/svg">
<g id="Group 298">
<g id="Group">
<g id="Group_2">
<path id="Vector" d="M8.33971 7.72312C7.25062 8.64487 6.05262 9.09887 4.75933 9.09887C3.43881 9.09887 2.36333 8.68615 1.54651 7.87445C0.729698 7.06275 0.321289 5.9759 0.321289 4.6139C0.321289 3.78845 0.484654 3.01802 0.824995 2.30263C1.15172 1.58724 1.64181 1.03693 2.29526 0.637963C2.94872 0.252751 3.73831 0.0463867 4.67765 0.0463867C5.64421 0.0463867 6.43381 0.266509 7.01919 0.692994C7.60458 1.11948 7.99937 1.76608 8.20358 2.63281L7.18256 2.92172C7.01919 2.28887 6.7333 1.82111 6.31128 1.50469C5.88926 1.18827 5.34471 1.03693 4.67765 1.03693C3.6294 1.03693 2.85342 1.35336 2.32249 1.99996C1.79156 2.64657 1.51929 3.48578 1.51929 4.53136C1.51929 5.31554 1.64181 5.96215 1.90047 6.47118C2.15913 6.98021 2.54031 7.37918 3.04401 7.64057C3.54772 7.90197 4.10588 8.03954 4.69126 8.03954C5.58976 8.03954 6.43381 7.73687 7.2234 7.1453V5.53566H4.67765V4.49009H8.33971V7.72312Z" fill="#58595B"/>
<path id="Vector_2" d="M17.6096 8.94855H12.1914V0.19873H13.335V7.90298H17.6096V8.94855Z" fill="#58595B"/>
<path id="Vector_3" d="M24.8929 0.0581055C26.1045 0.0581055 27.0983 0.470833 27.8743 1.31005C28.6503 2.1355 29.0315 3.23611 29.0315 4.59811C29.0315 5.96011 28.6503 7.04696 27.8743 7.87241C27.0983 8.69786 26.1045 9.11059 24.9065 9.11059C23.6541 9.11059 22.6603 8.68411 21.8979 7.83114C21.1356 6.97817 20.7544 5.93259 20.7544 4.69441C20.7544 3.26362 21.1356 2.12174 21.9116 1.29629C22.6739 0.470832 23.6677 0.0581055 24.8929 0.0581055ZM24.8929 8.10629C25.7642 8.10629 26.4857 7.78987 27.0303 7.17077C27.5748 6.55168 27.8471 5.68496 27.8471 4.58435C27.8471 3.44247 27.5748 2.57574 27.0167 1.95665C26.4585 1.33756 25.7642 1.03489 24.9202 1.03489C24.0489 1.03489 23.341 1.33756 22.7828 1.92914C22.2247 2.53447 21.9388 3.45623 21.9388 4.69441C21.9388 5.71247 22.211 6.52417 22.7556 7.15702C23.3001 7.78987 24.008 8.10629 24.8929 8.10629Z" fill="#58595B"/>
<path id="Vector_4" d="M37.5821 4.29849C38.1266 4.46358 38.535 4.73873 38.8073 5.11019C39.0796 5.48164 39.2157 5.92188 39.2157 6.4034C39.2157 6.89867 39.0932 7.33891 38.8481 7.75164C38.6031 8.16437 38.2627 8.46704 37.8135 8.65964C37.3642 8.85225 36.7516 8.94855 35.9893 8.94855H32.6812V0.19873H35.9212C36.9694 0.19873 37.7182 0.432609 38.1402 0.886609C38.5758 1.35437 38.7801 1.8634 38.7801 2.42746C38.7801 2.81267 38.6848 3.15661 38.4806 3.48679C38.2763 3.81697 37.9769 4.09213 37.5821 4.29849ZM33.8111 3.872H35.6761C36.0573 3.872 36.3841 3.84449 36.6427 3.80322C36.9014 3.76194 37.1328 3.63813 37.337 3.45928C37.5412 3.26667 37.6365 2.97776 37.6365 2.59255C37.6365 2.17982 37.5412 1.87716 37.337 1.67079C37.1328 1.47819 36.8878 1.35437 36.6155 1.31309C36.3296 1.27182 35.9757 1.24431 35.5264 1.24431H33.7975L33.8111 3.872ZM33.8111 7.91673H35.962C36.738 7.91673 37.2689 7.77916 37.5684 7.51776C37.8679 7.25637 38.0177 6.88491 38.0177 6.41716C38.0177 5.9494 37.8543 5.57794 37.5412 5.31655C37.2281 5.05516 36.6427 4.91758 35.8123 4.91758H33.8111V7.91673Z" fill="#58595B"/>
<path id="Vector_5" d="M50.0782 8.94855H48.7849L47.7639 6.29334H44.1563L43.2033 8.94855H41.9917L45.3134 0.19873H46.5523L50.0782 8.94855ZM47.4235 5.37158C46.7156 3.47303 46.3208 2.39994 46.2255 2.15231C46.1302 1.89091 46.0349 1.54697 45.926 1.12049H45.8852C45.7763 1.71206 45.6265 2.24861 45.4359 2.75764L44.4694 5.37158H47.4235Z" fill="#58595B"/>
<path id="Vector_6" d="M58.5618 8.94855H53.1436V0.19873H54.2871V7.90298H58.5618V8.94855Z" fill="#58595B"/>
</g>
<g id="Group_3">
<path id="Vector_7" d="M11.0956 23.8046C11.0956 26.3085 10.6327 28.2346 9.70699 29.5828C8.78127 30.931 7.44713 31.6052 5.7182 31.6052C3.98927 31.6052 2.65514 30.931 1.72941 29.5966C0.803685 28.2483 0.34082 26.3222 0.34082 23.7909C0.34082 21.287 0.803685 19.3609 1.72941 18.0264C2.65514 16.6919 3.98927 16.0178 5.74543 16.0178C7.47436 16.0178 8.79488 16.6919 9.7206 18.0264C10.6327 19.3747 11.0956 21.3007 11.0956 23.8046ZM3.18607 23.8046C3.18607 25.5243 3.40389 26.845 3.82591 27.753C4.26154 28.661 4.88777 29.115 5.7182 29.115C7.39267 29.115 8.23672 27.3541 8.23672 23.8184C8.23672 20.2827 7.40629 18.5217 5.73181 18.5217C4.88777 18.5217 4.24793 18.9757 3.81229 19.8699C3.39027 20.7504 3.18607 22.0712 3.18607 23.8046Z" fill="#DC3545"/>
<path id="Vector_8" d="M17.7664 31.3855H14.9893V16.2522H21.7008V18.6873H17.7528V22.8834H21.4285V25.3184H17.7528V31.3855H17.7664Z" fill="#DC3545"/>
<path id="Vector_9" d="M28.0609 31.3855H25.2974V16.2522H32.0089V18.6873H28.0609V22.8834H31.7366V25.3184H28.0609V31.3855Z" fill="#DC3545"/>
<path id="Vector_10" d="M42.4081 27.2183C42.4081 28.6353 42.0541 29.7222 41.3462 30.4651C40.6383 31.2217 39.6173 31.5932 38.2831 31.5932C36.9762 31.5932 35.8735 31.3318 34.9614 30.8228V28.03C36.0777 28.7729 37.1124 29.1306 38.0381 29.1306C38.569 29.1306 38.9774 28.9792 39.2361 28.6903C39.5084 28.3877 39.6445 27.9887 39.6445 27.4797C39.6445 26.9706 39.4811 26.5166 39.168 26.1039C38.8413 25.6912 38.324 25.2234 37.5752 24.7144C36.9354 24.2604 36.4453 23.8339 36.1186 23.4212C35.7919 23.0085 35.5332 22.5545 35.3562 22.0454C35.1792 21.5364 35.0839 20.9448 35.0839 20.2707C35.0839 18.9775 35.4379 17.9457 36.1594 17.189C36.8673 16.4323 37.8339 16.0471 39.0319 16.0471C40.1754 16.0471 41.2781 16.3773 42.34 17.0239L41.4143 19.2802C41.0875 19.0875 40.7472 18.9087 40.3796 18.7574C40.0257 18.606 39.6309 18.5235 39.2225 18.5235C38.7732 18.5235 38.4193 18.6748 38.1879 18.9775C37.9428 19.2802 37.8203 19.6929 37.8203 20.2019C37.8203 20.7109 37.97 21.1512 38.2559 21.5364C38.5418 21.9216 39.0591 22.3481 39.7806 22.8296C40.7608 23.49 41.4415 24.1641 41.8227 24.852C42.2039 25.5398 42.4081 26.3378 42.4081 27.2183Z" fill="#DC3545"/>
<path id="Vector_11" d="M55.1342 31.3855H52.3434V24.7544H48.6677V31.3855H45.877V16.2522H48.6677V22.2643H52.3434V16.2522H55.1342V31.3855Z" fill="#DC3545"/>
<path id="Vector_12" d="M69.7299 23.8046C69.7299 26.3085 69.267 28.2346 68.3413 29.5828C67.4155 30.931 66.0814 31.6052 64.3525 31.6052C62.6235 31.6052 61.2894 30.931 60.3637 29.5966C59.438 28.2483 58.9751 26.3222 58.9751 23.7909C58.9751 21.287 59.438 19.3609 60.3637 18.0264C61.2894 16.6919 62.6235 16.0178 64.3797 16.0178C66.1086 16.0178 67.4292 16.6919 68.3549 18.0264C69.2806 19.3747 69.7299 21.3007 69.7299 23.8046ZM61.8203 23.8046C61.8203 25.5243 62.0382 26.845 62.4602 27.753C62.8958 28.661 63.522 29.115 64.3525 29.115C66.027 29.115 66.871 27.3541 66.871 23.8184C66.871 20.2827 66.0406 18.5217 64.3661 18.5217C63.5221 18.5217 62.8822 18.9757 62.4466 19.8699C62.0382 20.7504 61.8203 22.0712 61.8203 23.8046Z" fill="#DC3545"/>
<path id="Vector_13" d="M76.4124 25.4973V31.3855H73.6216V16.2522H77.27C78.8084 16.2522 79.9519 16.6237 80.687 17.3528C81.4222 18.0957 81.7897 19.2238 81.7897 20.7372C81.7897 22.6495 81.1499 23.984 79.8702 24.7406L82.7427 31.3718H79.7613L77.3926 25.4835L76.4124 25.4973ZM76.4124 23.076H77.1339C77.7873 23.076 78.2638 22.8834 78.5497 22.5119C78.8356 22.1404 78.9853 21.5764 78.9853 20.8335C78.9853 20.063 78.8356 19.5127 78.5361 19.1826C78.2366 18.8524 77.7601 18.6873 77.1339 18.6873H76.4396V23.076H76.4124Z" fill="#DC3545"/>
<path id="Vector_14" d="M92.4667 31.3855H85.7144V16.2522H92.4667V18.6873H88.5051V22.2918H92.1808V24.7269H88.5051V28.9229H92.4667V31.3855Z" fill="#DC3545"/>
<path id="Vector_15" d="M100.891 16.9946C99.761 16.9946 98.8626 17.5999 98.2091 18.7969C97.542 20.0075 97.2153 21.6722 97.2153 23.8046C97.2153 25.1941 97.365 26.4048 97.6782 27.4229C97.9913 28.4547 98.4269 29.2389 98.9987 29.7892C99.5704 30.3395 100.238 30.6146 101 30.6146C101.776 30.6146 102.443 30.477 103.001 30.1881V31.1236C102.47 31.4401 101.762 31.5914 100.905 31.5914C99.9516 31.5914 99.1212 31.275 98.4133 30.6559C97.7054 30.0368 97.1472 29.1426 96.766 27.9594C96.3712 26.79 96.1807 25.3867 96.1807 23.7771C96.1807 21.3558 96.6027 19.471 97.4603 18.0815C98.3044 16.7057 99.4752 16.0178 100.932 16.0178C101.844 16.0178 102.647 16.2379 103.328 16.6644L102.865 17.5587C102.266 17.1735 101.612 16.9946 100.891 16.9946Z" fill="#DC3545"/>
<path id="Vector_16" d="M115.253 23.8064C115.253 26.3103 114.886 28.2363 114.137 29.5846C113.402 30.9328 112.326 31.6069 110.924 31.6069C109.508 31.6069 108.433 30.9328 107.711 29.5708C106.99 28.2088 106.622 26.2828 106.622 23.7926C106.622 21.1787 106.99 19.2389 107.711 17.9594C108.433 16.68 109.522 16.0471 110.965 16.0471C112.353 16.0471 113.415 16.7212 114.15 18.0557C114.886 19.3902 115.253 21.3163 115.253 23.8064ZM107.657 23.8064C107.657 26.0626 107.929 27.7548 108.487 28.8967C109.045 30.0386 109.848 30.6164 110.924 30.6164C111.999 30.6164 112.816 30.0523 113.361 28.9105C113.919 27.7686 114.191 26.0626 114.191 23.7926C114.191 21.5502 113.919 19.858 113.374 18.7161C112.83 17.5742 112.013 17.0101 110.951 17.0101C109.849 17.0101 109.032 17.588 108.474 18.7436C107.929 19.8992 107.657 21.5914 107.657 23.8064Z" fill="#DC3545"/>
<path id="Vector_17" d="M124.621 31.3855L120.632 17.6142H120.55C120.618 19.0587 120.659 19.9805 120.659 20.3657V31.3855H119.693V16.2522H121.177L124.539 27.8223C124.839 28.8404 125.029 29.7071 125.124 30.4363H125.206C125.274 29.9272 125.492 29.0605 125.846 27.8498L129.168 16.2522H130.706V31.3855H129.699V20.4483C129.699 20.0218 129.739 19.0863 129.808 17.628H129.726L125.764 31.3855H124.621Z" fill="#DC3545"/>
<path id="Vector_18" d="M141.95 20.5996C141.95 22.1542 141.596 23.3098 140.889 24.039C140.181 24.7681 139.132 25.1396 137.744 25.1396H136.682V31.3855H135.675V16.2522H137.717C139.173 16.2522 140.249 16.5961 140.916 17.2978C141.61 17.9994 141.95 19.1 141.95 20.5996ZM136.682 24.2041H137.689C138.86 24.2041 139.691 23.9289 140.194 23.3649C140.684 22.8008 140.929 21.879 140.929 20.5996C140.929 19.3752 140.671 18.5084 140.167 17.9719C139.663 17.4491 138.874 17.174 137.812 17.174H136.696L136.682 24.2041Z" fill="#DC3545"/>
<path id="Vector_19" d="M151.64 31.3855L150.319 25.8963H146.684L145.377 31.3855H144.329L147.937 16.2522H148.971L152.661 31.3855H151.64ZM150.074 24.8782L148.754 19.2376C148.617 18.6047 148.508 17.9994 148.44 17.4354C148.372 18.0407 148.277 18.6323 148.155 19.2376L146.875 24.8782H150.074Z" fill="#DC3545"/>
<path id="Vector_20" d="M163.828 31.3855H162.548L156.885 17.8206H156.803C156.885 18.7561 156.926 19.6641 156.926 20.5308V31.3855H155.946V16.2522H157.252L162.875 29.6658H162.943C162.889 28.5377 162.861 27.5884 162.861 26.8318V16.2522H163.841L163.828 31.3855Z" fill="#DC3545"/>
<path id="Vector_21" d="M170.731 24.0665L173.167 16.2522H174.229L171.207 25.4698V31.3855H170.2V25.4698L167.205 16.2522H168.266L170.731 24.0665Z" fill="#DC3545"/>
</g>
</g>
</g>
</svg>
