<svg width="44" height="42" viewBox="0 0 44 42" fill="none" xmlns="http://www.w3.org/2000/svg">
<g id="Logo">
<g id="Group 516">
<ellipse id="Ellipse 512" cx="22.1755" cy="21" rx="21.0691" ry="21" fill="#DC3645"/>
<circle id="Ellipse 513" cx="19.5493" cy="21.0679" r="19.5493" fill="white"/>
<circle id="Ellipse 514" cx="18.7878" cy="21.0004" r="17.4079" fill="#DC3645"/>
<circle id="Ellipse 515" cx="21.275" cy="21.0013" r="15.4737" fill="white"/>
</g>
<g id="Group 517">
<circle id="Ellipse 517" cx="21.9636" cy="20.9997" r="12.0197" fill="#DC3645"/>
<ellipse id="Ellipse 518" cx="20.5829" cy="20.9994" rx="11.3289" ry="11.1908" fill="white"/>
<ellipse id="Ellipse 519" cx="20.9988" cy="21.0672" rx="8.84211" ry="8.91118" fill="#DC3645"/>
<circle id="Ellipse 520" cx="23.0688" cy="20.9985" r="7.875" fill="white"/>
<rect id="Rectangle 745" x="25.8325" y="14.6443" width="10.0855" height="6.2171" fill="white"/>
<rect id="Rectangle 746" x="32.1807" y="18.0518" width="4.82401" height="2.00989" transform="rotate(47.7472 32.1807 18.0518)" fill="white"/>
<path id="Rectangle 749" d="M31.0952 13.0942L28.7554 15.7546L30.2431 17.1061L32.357 14.8153L31.0952 13.0942Z" fill="#DC3645"/>
<path id="Rectangle 747" d="M22.2402 22.656C22.2402 22.656 29.8252 22.656 29.9594 22.656C30.0937 22.656 29.4224 24.5902 29.2882 24.5902C29.1539 24.5902 24.0073 24.5902 24.0073 24.5902L22.2402 22.656Z" fill="#DC3645"/>
</g>
</g>
</svg>
