<svg width="46" height="46" viewBox="0 0 46 46" fill="none" xmlns="http://www.w3.org/2000/svg">
<path d="M25.6875 0.25C29.3659 0.25 32.7839 1.17773 35.9414 3.0332C39.0013 4.82357 41.4264 7.2487 43.2168 10.3086C45.0723 13.4661 46 16.8841 46 20.5625H42.875C42.875 17.4701 42.0938 14.5729 40.5312 11.8711C39.0013 9.29948 36.9505 7.2487 34.3789 5.71875C31.6771 4.15625 28.7799 3.375 25.6875 3.375V0.25ZM9.52539 4.9375C10.4043 4.9375 11.1693 5.21419 11.8203 5.76758L18.3633 12.457L18.2168 12.3105C18.998 12.929 19.3887 13.7428 19.3887 14.752C19.3887 15.7285 19.0469 16.5749 18.3633 17.291L15.2383 20.416C16.3125 22.9225 17.7611 25.0547 19.584 26.8125C21.4069 28.5378 23.5553 29.9863 26.0293 31.1582L29.1055 28.0332C29.7565 27.3822 30.5703 27.0566 31.5469 27.0566C32.5234 27.0566 33.3372 27.3822 33.9883 28.0332L40.3848 34.4785C41.0358 35.1296 41.3613 35.9434 41.3613 36.9199C41.3613 37.8639 41.0358 38.6615 40.3848 39.3125L35.4531 44.2441C34.7044 44.8952 33.8418 45.3184 32.8652 45.5137C31.9212 45.709 30.9772 45.6439 30.0332 45.3184H29.9844C22.9206 42.5514 17.0124 38.7754 12.2598 33.9902C9.29753 31.0605 6.74219 27.7565 4.59375 24.0781C3.0638 21.4089 1.8431 18.8047 0.931641 16.2656C0.573568 15.3216 0.508464 14.3451 0.736328 13.3359C0.996745 12.3268 1.53385 11.4805 2.34766 10.7969L2.20117 10.8945L7.23047 5.76758C7.88151 5.21419 8.64648 4.9375 9.52539 4.9375ZM25.6875 6.5C28.2266 6.5 30.5866 7.13477 32.7676 8.4043C34.8835 9.67383 36.5762 11.3665 37.8457 13.4824C39.1152 15.6634 39.75 18.0234 39.75 20.5625H36.625C36.625 18.5768 36.1367 16.7539 35.1602 15.0938C34.1836 13.401 32.849 12.0664 31.1562 11.0898C29.4961 10.1133 27.6732 9.625 25.6875 9.625V6.5ZM9.52539 8.0625C9.39518 8.0625 9.28125 8.11133 9.18359 8.20898L4.34961 13.1406C4.08919 13.3685 3.91016 13.694 3.8125 14.1172C3.71484 14.5078 3.73112 14.8496 3.86133 15.1426V15.1914C4.67513 17.5352 5.81445 19.9603 7.2793 22.4668C9.33008 25.9499 11.7227 29.0586 14.457 31.793C18.8841 36.2526 24.418 39.7682 31.0586 42.3398C31.9049 42.6328 32.6862 42.4701 33.4023 41.8516L38.2852 37.0176C38.3503 36.9525 38.3828 36.9199 38.3828 36.9199C38.3828 36.8874 38.3503 36.8385 38.2852 36.7734L31.6934 30.1816C31.6283 30.1165 31.5794 30.084 31.5469 30.084C31.5143 30.084 31.4655 30.1165 31.4004 30.1816L26.6641 34.918L25.6875 34.4785C24.9388 34.1855 24.0273 33.7298 22.9531 33.1113C20.8047 31.8743 18.9655 30.5072 17.4355 29.0098C16.2962 27.9681 15.2546 26.7148 14.3105 25.25C13.627 24.2083 13.0247 23.1341 12.5039 22.0273L11.8691 20.6602L11.5273 19.6836L16.166 15.0938C16.2637 14.9961 16.2962 14.8822 16.2637 14.752L9.86719 8.20898C9.73698 8.11133 9.62305 8.0625 9.52539 8.0625ZM25.6875 12.75C27.0872 12.75 28.3893 13.1081 29.5938 13.8242C30.7982 14.5078 31.7422 15.4518 32.4258 16.6562C33.1419 17.8607 33.5 19.1628 33.5 20.5625H30.375C30.375 19.2604 29.9193 18.1536 29.0078 17.2422C28.0964 16.3307 26.9896 15.875 25.6875 15.875V12.75Z" fill="#C30E0E"/>
</svg>
