<svg width="40" height="40" viewBox="0 0 40 40" fill="none" xmlns="http://www.w3.org/2000/svg">
<g id="Huge-icon/interface/outline/smile-ellipse">
<path id="Vector" d="M15.0002 25.0002C15.0002 25.0002 16.8752 26.6668 20.0002 26.6668C23.1252 26.6668 25.0002 25.0002 25.0002 25.0002M28.3335 16.6668C28.3335 17.5873 27.5873 18.3335 26.6668 18.3335C25.7464 18.3335 25.0002 17.5873 25.0002 16.6668C25.0002 15.7464 25.7464 15.0002 26.6668 15.0002C27.5873 15.0002 28.3335 15.7464 28.3335 16.6668ZM36.6668 20.0002C36.6668 29.2049 29.2049 36.6668 20.0002 36.6668C10.7954 36.6668 3.3335 29.2049 3.3335 20.0002C3.3335 10.7954 10.7954 3.3335 20.0002 3.3335C29.2049 3.3335 36.6668 10.7954 36.6668 20.0002ZM15.0002 16.6668C15.0002 17.5873 14.254 18.3335 13.3335 18.3335C12.413 18.3335 11.6668 17.5873 11.6668 16.6668C11.6668 15.7464 12.413 15.0002 13.3335 15.0002C14.254 15.0002 15.0002 15.7464 15.0002 16.6668Z" stroke="#C30E0E" stroke-width="1.5" stroke-linecap="round" stroke-linejoin="round"/>
</g>
</svg>
