<svg width="67" height="61" viewBox="0 0 67 61" fill="none" xmlns="http://www.w3.org/2000/svg">
<path d="M35.5 0H40.5V2.96875C41.5938 3.38542 42.5312 4.01042 43.3125 4.84375C44.1458 5.67708 44.7448 6.61458 45.1094 7.65625C45.2656 8.02083 45.3698 8.41146 45.4219 8.82812C45.474 9.19271 45.5 9.58333 45.5 10H40.5C40.5 9.27083 40.2656 8.67188 39.7969 8.20312C39.3281 7.73438 38.7292 7.5 38 7.5C37.2708 7.5 36.6719 7.73438 36.2031 8.20312C35.9948 8.46354 35.8125 8.75 35.6562 9.0625C35.5521 9.32292 35.5 9.63542 35.5 10C35.5 10.3646 35.5521 10.7031 35.6562 11.0156C35.8125 11.276 35.9948 11.5365 36.2031 11.7969C36.4635 12.0052 36.724 12.1875 36.9844 12.3438C37.2969 12.4479 37.6354 12.5 38 12.5C38.5208 12.5 39.0156 12.5521 39.4844 12.6562C41.2031 13.0208 42.6354 13.9062 43.7812 15.3125C44.9271 16.6667 45.5 18.2292 45.5 20C45.5 21.6146 45.0312 23.0729 44.0938 24.375C43.1562 25.625 41.9583 26.5104 40.5 27.0312V30H35.5V27.0312C35.1354 26.875 34.7708 26.7188 34.4062 26.5625C34.0938 26.3542 33.7812 26.1458 33.4688 25.9375C33.2083 25.7292 32.9219 25.4688 32.6094 25.1562C31.8281 24.3229 31.2552 23.3854 30.8906 22.3438C30.7344 21.9792 30.6302 21.6146 30.5781 21.25C30.526 20.8333 30.5 20.4167 30.5 20H35.5C35.5 20.3646 35.5521 20.7031 35.6562 21.0156C35.8125 21.276 35.9948 21.5365 36.2031 21.7969C36.4635 22.0052 36.724 22.1875 36.9844 22.3438C37.2969 22.4479 37.6354 22.5 38 22.5C38.3646 22.5 38.7031 22.4479 39.0156 22.3438C39.4323 22.1354 39.7708 21.8229 40.0312 21.4062C40.3438 20.9896 40.5 20.5208 40.5 20C40.5 19.6354 40.4219 19.3229 40.2656 19.0625C40.1615 18.75 39.9792 18.4896 39.7188 18.2812C39.5104 18.0208 39.25 17.8385 38.9375 17.7344C38.6771 17.5781 38.3646 17.5 38 17.5C36.4896 17.5 35.1094 17.0573 33.8594 16.1719C33.4427 15.9115 33.0521 15.625 32.6875 15.3125C32.375 14.9479 32.0885 14.5573 31.8281 14.1406C31.2552 13.3594 30.8646 12.474 30.6562 11.4844C30.5521 11.0156 30.5 10.5208 30.5 10C30.5 8.80208 30.7604 7.68229 31.2812 6.64062C31.6458 5.96354 32.0885 5.36458 32.6094 4.84375C33.1823 4.27083 33.8073 3.80208 34.4844 3.4375C34.7969 3.28125 35.1354 3.125 35.5 2.96875V0ZM19.3281 35H19.25C22.7917 35 25.7604 36.0677 28.1562 38.2031V38.2812C29.5104 39.4271 30.526 40.2344 31.2031 40.7031C31.9844 41.224 32.7917 41.6146 33.625 41.875C34.4583 42.1354 35.5781 42.3177 36.9844 42.4219C38.4427 42.526 40.4479 42.5781 43 42.5781V47.5781C40.1875 47.5781 38.0781 47.526 36.6719 47.4219C34.901 47.3177 33.3906 47.0833 32.1406 46.7188C30.8906 46.3021 29.6667 45.6771 28.4688 44.8438C27.5833 44.2708 26.3854 43.3333 24.875 42.0312V41.9531C23.4167 40.651 21.5677 40 19.3281 40C18.599 40 17.8958 40.0781 17.2188 40.2344C16.75 40.2865 16.4635 40.3385 16.3594 40.3906L6.90625 44.0625L8.46875 48.5156L18.2344 44.8438L35.9688 54.6094L64.5625 42.7344L66.4375 47.3438L35.6562 60.1562L17.8438 50.3125L5.5 55.0781L0.5 41.0938L14.7188 35.625L16.0469 35.3125C17.1406 35.1042 18.2344 35 19.3281 35Z" fill="#C30E0E"/>
</svg>
